<svg xmlns="http://www.w3.org/2000/svg" version="1.1" xmlns:xlink="http://www.w3.org/1999/xlink" xmlns:svgjs="http://svgjs.com/svgjs" width="2000" height="1000" preserveAspectRatio="none" viewBox="0 0 2000 1000"><g mask="url(&quot;#SvgjsMask1118&quot;)" fill="none"><rect width="2000" height="1000" x="0" y="0" fill="rgba(21, 67, 96, 1)"></rect><path d="M0,546.627C100.351,538.34,172.49,454.647,257.265,400.313C342.163,345.9,446.393,314.06,498.017,227.437C551.768,137.245,580.067,19.996,542.305,-77.972C505.465,-173.549,372.712,-187.465,307.609,-266.545C239.78,-348.936,253.063,-491.79,159.446,-543.025C66.155,-594.081,-50.844,-550.532,-152.145,-518.159C-251.611,-486.372,-366.929,-452.254,-414.87,-359.487C-462.391,-267.532,-375.797,-158.603,-390.88,-56.2C-406.049,46.787,-522.848,127.155,-501.554,229.052C-480.315,330.684,-373.823,389.639,-286.101,445.183C-198.846,500.432,-102.926,555.126,0,546.627" fill="#0e2c3e"></path><path d="M2000 1562.0149999999999C2128.793 1570.641 2260.359 1641.001 2378.451 1588.882 2500.221 1535.1399999999999 2598.172 1416.005 2625.835 1285.809 2652.413 1160.722 2543.942 1050.825 2519.442 925.315 2496.676 808.691 2561.152 670.819 2487.572 577.5160000000001 2414.0280000000002 484.259 2272.577 492.573 2156.911 465.60900000000004 2048.068 440.236 1940.665 402.88599999999997 1831.006 424.46000000000004 1715.339 447.216 1603.432 500.389 1526.43 589.649 1449.5059999999999 678.818 1434.913 800.242 1407.94 914.875 1378.35 1040.631 1314.142 1171.413 1361.238 1291.713 1408.757 1413.091 1532.74 1489.483 1652.782 1540.281 1761.787 1586.408 1881.902 1554.106 2000 1562.0149999999999" fill="#1c5a82"></path></g><defs><mask id="SvgjsMask1118"><rect width="2000" height="1000" fill="#ffffff"></rect></mask></defs></svg>